<svg width="25" height="24" viewBox="0 0 25 24" fill="none" xmlns="http://www.w3.org/2000/svg">
<g id="vuesax/bulk/verify">
<g id="verify">
<path id="Vector" opacity="0.4" d="M11.2499 2.45009C11.9399 1.86009 13.0699 1.86009 13.7699 2.45009L15.3499 3.81009C15.6499 4.07009 16.2099 4.28009 16.6099 4.28009H18.3099C19.3699 4.28009 20.2399 5.15009 20.2399 6.21009V7.91009C20.2399 8.30009 20.4499 8.87009 20.7099 9.17009L22.0699 10.7501C22.6599 11.4401 22.6599 12.5701 22.0699 13.2701L20.7099 14.8501C20.4499 15.1501 20.2399 15.7101 20.2399 16.1101V17.8101C20.2399 18.8701 19.3699 19.7401 18.3099 19.7401H16.6099C16.2199 19.7401 15.6499 19.9501 15.3499 20.2101L13.7699 21.5701C13.0799 22.1601 11.9499 22.1601 11.2499 21.5701L9.66988 20.2101C9.36988 19.9501 8.80988 19.7401 8.40988 19.7401H6.67988C5.61988 19.7401 4.74988 18.8701 4.74988 17.8101V16.1001C4.74988 15.7101 4.53988 15.1501 4.28988 14.8501L2.93988 13.2601C2.35988 12.5701 2.35988 11.4501 2.93988 10.7601L4.28988 9.17009C4.53988 8.87009 4.74988 8.31009 4.74988 7.92009V6.20009C4.74988 5.14009 5.61988 4.27009 6.67988 4.27009H8.40988C8.79988 4.27009 9.36988 4.06009 9.66988 3.80009L11.2499 2.45009Z" fill="#15BBE0"/>
<path id="Vector_2" d="M11.2901 15.1701C11.0901 15.1701 10.9001 15.0901 10.7601 14.9501L8.34006 12.5301C8.05006 12.2401 8.05006 11.7601 8.34006 11.4701C8.63006 11.1801 9.11006 11.1801 9.40006 11.4701L11.2901 13.3601L15.5901 9.06009C15.8801 8.77009 16.3601 8.77009 16.6501 9.06009C16.9401 9.35009 16.9401 9.83009 16.6501 10.1201L11.8201 14.9501C11.6801 15.0901 11.4901 15.1701 11.2901 15.1701Z" fill="#15BBE0"/>
</g>
</g>
</svg>
