<svg width="21" height="20" viewBox="0 0 21 20" fill="none" xmlns="http://www.w3.org/2000/svg">
<g id="XRP">
<path id="Oval" d="M10.043 20C15.5658 20 20.043 15.5229 20.043 10C20.043 4.4772 15.5658 4.57764e-05 10.043 4.57764e-05C4.52012 4.57764e-05 0.0429688 4.4772 0.0429688 10C0.0429688 15.5229 4.52012 20 10.043 20Z" fill="black"/>
<path id="Path 2" d="M14.0159 15.2942L11.3606 12.54C11.1753 12.3447 10.9521 12.1891 10.7047 12.0827C10.4573 11.9764 10.1908 11.9216 9.92153 11.9216C9.65223 11.9216 9.38575 11.9764 9.13833 12.0827C8.89091 12.1891 8.66774 12.3447 8.48241 12.54L5.82711 15.2942H4.16064L7.64888 11.6753C7.94164 11.3669 8.2941 11.1213 8.68481 10.9535C9.07552 10.7857 9.4963 10.6991 9.92153 10.6991C10.3468 10.6991 10.7675 10.7857 11.1582 10.9535C11.549 11.1213 11.9014 11.3669 12.1942 11.6753L15.6824 15.2942H14.0159ZM7.64947 8.89064L4.18241 5.29417H5.84829L8.48241 8.02593C8.66778 8.22124 8.89097 8.37678 9.13838 8.48306C9.38579 8.58934 9.65225 8.64416 9.92153 8.64416C10.1908 8.64416 10.4573 8.58934 10.7047 8.48306C10.9521 8.37678 11.1753 8.22124 11.3606 8.02593L13.9948 5.29417H15.6612L12.1942 8.89064C11.9015 9.19903 11.5491 9.44461 11.1584 9.61243C10.7677 9.78025 10.347 9.86679 9.92182 9.86679C9.49664 9.86679 9.07591 9.78025 8.68525 9.61243C8.29459 9.44461 7.94217 9.19903 7.64947 8.89064Z" fill="white"/>
</g>
</svg>
